<svg width="104" height="28" viewBox="0 0 104 28" fill="none" xmlns="http://www.w3.org/2000/svg">
<g clip-path="url(#clip0_8752_42516)">
<path d="M13.7544 15.6892C13.8771 16.9703 13.9439 17.6375 12.903 18.7344C11.8275 19.8661 9.11855 21.9665 6.34559 23.5678C5.18196 24.2404 3.60198 25.0544 2.40632 25.4894C1.51759 25.807 0.772973 25.9432 0.401999 25.3026C0.161801 24.8889 0.27923 24.5073 0.404667 24.1737C1.36813 21.5608 4.14643 16.6821 5.95593 13.5087C6.14008 13.1831 6.33224 12.8522 6.52707 12.5159C9.3107 7.7092 13.0071 1.82426 13.7304 0.88214C13.8371 0.743357 14.0293 0.585892 14.2054 0.689979C14.3495 0.772715 14.3495 0.946192 14.3309 1.06362C14.3282 1.08498 14.2855 1.25579 14.2668 1.32518C13.0685 6.18259 13.1993 10.9439 13.7517 15.6919" fill="#110C30"/>
<path d="M17.8211 17.1904C16.6495 16.6566 16.0409 16.379 15.6086 14.9325C15.1656 13.4352 14.7012 10.0377 14.7012 6.83768C14.7012 5.49255 14.7839 3.72039 15.0054 2.46601C15.1709 1.53723 15.4271 0.82196 16.1691 0.82196C16.6468 0.82196 16.9163 1.11287 17.1459 1.39044C18.9287 3.53357 21.7603 8.37763 23.6045 11.5296C23.794 11.8525 23.9835 12.1835 24.1783 12.5198C26.9486 17.3372 30.1993 23.4783 30.653 24.5806C30.7198 24.738 30.7625 24.9836 30.5836 25.085C30.4395 25.1677 30.2874 25.085 30.1967 25.0076C30.1806 24.9942 30.0525 24.8715 30.0045 24.8234C26.3962 21.3565 22.2087 19.0879 17.8184 17.193" fill="#110C30"/>
<path d="M14.49 19.9612C15.5362 19.2139 16.0833 18.8242 17.5512 19.1765C19.0697 19.5395 22.243 20.8366 25.0133 22.4379C26.1796 23.1105 27.6742 24.0686 28.6483 24.888C29.3716 25.4965 29.86 26.0756 29.489 26.7188C29.2488 27.1325 28.8618 27.2206 28.5069 27.282C25.7633 27.7544 20.1506 27.7864 16.497 27.8078C16.1233 27.8078 15.739 27.8078 15.352 27.8078C9.79541 27.7998 2.85366 27.5409 1.67402 27.3834C1.50054 27.3594 1.26835 27.274 1.27102 27.0711C1.27102 26.9057 1.42048 26.8176 1.53257 26.7749C1.55125 26.7669 1.72206 26.7162 1.78878 26.6975C6.59542 25.3043 10.6548 22.8142 14.49 19.9612Z" fill="#110C30"/>
<path fill-rule="evenodd" clip-rule="evenodd" d="M40.8944 14.3216V22.854H38.4817V14.3216H35.7461V12.3279H43.63V14.3216H40.8944Z" fill="#110C30"/>
<path fill-rule="evenodd" clip-rule="evenodd" d="M48.8646 12.3279H45.0854V22.83H48.9099C51.368 22.83 52.5957 21.8319 52.5957 19.7928C52.5957 19.0509 52.4088 18.4477 52.0165 18.0313C51.6215 17.6123 51.0904 17.3828 50.3698 17.3347C50.949 17.2894 51.3867 17.0785 51.6909 16.7102C51.9925 16.3392 52.1553 15.8055 52.1553 15.1356C52.1553 13.2567 51.0637 12.3306 48.8619 12.3306M49.3984 16.4994C49.2356 16.5928 48.958 16.6168 48.587 16.5688H47.4047V14.0653H48.611C48.958 14.0653 49.2142 14.1134 49.401 14.1801C49.5611 14.2495 49.7026 14.3643 49.772 14.5511C49.8414 14.7352 49.8894 14.9914 49.8894 15.3384C49.8894 15.6854 49.8414 15.9416 49.772 16.1284C49.7026 16.3126 49.5878 16.43 49.401 16.4994H49.3984ZM49.6279 20.9298C49.4197 20.9992 49.1181 21.0472 48.6537 21.0472H47.378V18.3116H48.6537C49.0701 18.3116 49.3717 18.3569 49.6039 18.429C49.836 18.4984 49.9748 18.6372 50.0682 18.8213C50.1616 19.0295 50.207 19.3097 50.207 19.6807C50.207 20.0757 50.1616 20.3533 50.0682 20.5374C49.9748 20.7216 49.836 20.863 49.6279 20.9324V20.9298Z" fill="#110C30"/>
<path fill-rule="evenodd" clip-rule="evenodd" d="M55.0369 21.6753C54.2469 20.7705 53.8306 19.4254 53.8306 17.6185C53.8306 14.0022 55.4292 12.1953 58.6292 12.1953C59.4405 12.1953 60.1825 12.3101 60.855 12.5423L60.4147 14.4666C59.953 14.2344 59.4192 14.0956 58.792 14.0956C58.1194 14.0956 57.5857 14.189 57.2387 14.3972C56.8918 14.6053 56.6356 14.9309 56.4968 15.4407C56.358 15.9264 56.2859 16.6684 56.2859 17.6185C56.2859 18.5687 56.3553 19.2652 56.4968 19.7537C56.6356 20.2394 56.8918 20.5864 57.2387 20.7732C57.5857 20.9573 58.0954 21.0748 58.768 21.0748C59.5099 21.0748 60.1585 20.936 60.6442 20.6344L61.0846 22.6067C60.3907 22.8843 59.5767 23.0231 58.6506 23.0231C57.0279 23.0231 55.8215 22.5613 55.0342 21.6779" fill="#110C30"/>
<path fill-rule="evenodd" clip-rule="evenodd" d="M69.5944 21.0033H68.3187V18.2676H69.5944C70.0108 18.2676 70.3364 18.3157 70.5446 18.3851C70.7768 18.4785 70.9155 18.6173 71.009 18.8014C71.1024 18.9856 71.1477 19.2872 71.1477 19.6582C71.1477 20.0291 71.1024 20.3307 71.009 20.5175C70.9369 20.7257 70.7768 20.8645 70.5659 20.9339C70.3577 21.0033 70.0348 21.0513 69.5944 21.0033ZM69.5224 16.5969H68.3401V14.0695H69.5464C69.8934 14.0695 70.1736 14.1175 70.3337 14.1869C70.4965 14.2563 70.6353 14.371 70.7047 14.5579C70.7741 14.7447 70.8195 14.9982 70.8195 15.3452C70.8195 15.6922 70.7741 15.9484 70.7047 16.1352C70.6353 16.3193 70.5205 16.4368 70.3337 16.5062C70.1496 16.5756 69.872 16.6236 69.5224 16.5996V16.5969ZM69.7786 12.308H65.9541V22.8341H69.8026C72.282 22.8341 73.5124 21.836 73.5124 19.7969C73.5124 19.031 73.3282 18.4305 72.9332 18.0114C72.5622 17.5951 72.0044 17.3629 71.2865 17.3175C71.8657 17.2721 72.306 17.0613 72.6076 16.6903C72.9065 16.3193 73.0693 15.7856 73.0693 15.1157C73.0693 13.2368 71.9778 12.3107 69.7759 12.3107L69.7786 12.308Z" fill="#110C30"/>
<path fill-rule="evenodd" clip-rule="evenodd" d="M80.0024 19.1244H77.6378L78.7961 14.9502L80.0024 19.1244ZM80.4428 20.8405L81.0219 22.8582H83.6188L80.0264 12.308H77.6378L74.0215 22.8582H76.5729L77.1307 20.8405H80.4455H80.4428Z" fill="#110C30"/>
<path fill-rule="evenodd" clip-rule="evenodd" d="M86.7274 12.308L90.9228 18.4972V12.308H93.2421V22.8582H91.3178L87.1224 16.6663V22.8582H84.8271V12.308H86.7274Z" fill="#110C30"/>
<path fill-rule="evenodd" clip-rule="evenodd" d="M97.4843 17.7072V22.8795H95.0957V12.308H97.4843V17.2455L100.428 12.308H103.14L99.849 17.4296L103.487 22.8795H100.658L97.4843 17.7072Z" fill="#110C30"/>
</g>
<defs>
<clipPath id="clip0_8752_42516">
<rect width="103.25" height="28" fill="white"/>
</clipPath>
</defs>
</svg>
