<?xml version="1.0" encoding="utf-8"?>
<!-- Generator: Adobe Illustrator 27.9.0, SVG Export Plug-In . SVG Version: 6.00 Build 0)  -->
<svg version="1.1" id="Layer_1" xmlns="http://www.w3.org/2000/svg" xmlns:xlink="http://www.w3.org/1999/xlink" x="0px" y="0px"
	 viewBox="0 0 1200 1200" style="enable-background:new 0 0 1200 1200;" xml:space="preserve">
<style type="text/css">
	.st0{fill:#003F20;}
	.st1{fill-rule:evenodd;clip-rule:evenodd;fill:#EFCC75;}
	.st2{fill-rule:evenodd;clip-rule:evenodd;fill:#003F20;}
	.st3{fill-rule:evenodd;clip-rule:evenodd;fill:#FFFFFF;}
	.st4{fill:#FFFFFF;}
	.st5{fill:#EFCC75;}
</style>
<g>
	<path class="st1" d="M899.24,540.8c0,26.17-21.22,47.39-47.39,47.39c-26.17,0-47.39-21.22-47.39-47.39
		c0-26.16,21.22-47.38,47.39-47.38C878.02,493.42,899.24,514.64,899.24,540.8"/>
	<path class="st1" d="M593.79,707.18c-28.84-1.67-50.21-27.52-44.98-55.83c9.48-51.2,80.88-52.36,93.07-1.79
		c2.72,11.22,0.85,25.51,6.76,39.63c11.08,26.34,33.15,44.3,61.3,49.56c0.01,0,5.34,0.49,15.93,1.46
		c28.21,2.61,48.15,25.19,44.67,53.38c-6.45,52.3-80.85,55.86-93.42,4.01c-1.6-6.52-1.16-17.47-2.57-24.74
		c-6.43-33.39-32.56-58.82-66.02-64.72C607.88,708.03,602.97,707.7,593.79,707.18"/>
	<path class="st2" d="M547.78,411.2c2.62-48.32,64.09-61.93,88.38-22.96c17.15,27.52,0.73,62.81-29.92,70.35
		c-0.92,0.25-7.25,0.95-18.99,2.16c-37.92,3.9-69.67,35.39-72.16,73.25c-0.76,11.19-0.94,19.6-6.17,29.15
		c-22.81,41.53-84.01,28.51-89.15-18.24c-2.48-22.74,14.72-45.89,36.62-50.4c8.69-1.78,21.89-1.44,31.68-4.16
		c31.32-8.74,54.49-34.82,59.06-67.22C547.13,423.07,547.35,419.1,547.78,411.2"/>
	<path class="st2" d="M770.99,412.69c0,26.16-21.2,47.36-47.37,47.36c-26.17,0-47.36-21.2-47.36-47.36
		c0-26.17,21.2-47.37,47.36-47.37C749.8,365.32,770.99,386.52,770.99,412.69"/>
	<path class="st2" d="M395.52,540.8c0,26.17-21.22,47.39-47.38,47.39c-26.17,0-47.38-21.22-47.38-47.39
		c0-26.16,21.22-47.38,47.38-47.38C374.3,493.42,395.52,514.64,395.52,540.8"/>
	<path class="st2" d="M642.78,540.8c0,26.17-21.22,47.39-47.38,47.39c-26.18,0-47.39-21.22-47.39-47.39
		c0-26.16,21.21-47.38,47.39-47.38C621.56,493.42,642.78,514.64,642.78,540.8"/>
	<path class="st2" d="M897.1,682.51c-15.7,51.56-91.04,41.16-92.73-12.89c-1.35-42.41-30.2-76.06-72.94-80.62
		c-8-0.86-16.29-0.84-23.5-3.39c-34.85-12.32-42.81-58.09-14.49-81.28c24.8-20.32,60.09-11.19,73.42,17.26
		c3.9,8.33,4.13,17.39,4.97,26.93c3.38,38.95,34.94,68.73,72.99,72.45c11.72,1.14,17.96,1.82,18.69,2
		C889.41,629.46,905.03,656.47,897.1,682.51"/>
	<path class="st2" d="M514.56,659.5c0,26.19-21.22,47.4-47.4,47.4c-26.19,0-47.41-21.21-47.41-47.4c0-26.19,21.22-47.41,47.41-47.41
		C493.34,612.09,514.56,633.31,514.56,659.5"/>
	<path class="st2" d="M771.03,659.47c0,26.18-21.22,47.4-47.38,47.4c-26.17,0-47.39-21.22-47.39-47.4
		c0-26.16,21.22-47.38,47.39-47.38C749.81,612.09,771.03,633.31,771.03,659.47"/>
	<path class="st1" d="M514.54,412.69c0,26.16-21.22,47.38-47.38,47.38c-26.17,0-47.4-21.22-47.4-47.38c0-26.17,21.22-47.4,47.4-47.4
		C493.32,365.29,514.54,386.52,514.54,412.69"/>
</g>
</svg>
