<svg width="20" height="20" viewBox="0 0 20 20" fill="none" xmlns="http://www.w3.org/2000/svg">
<path d="M14.1666 11.6667H10.5488C9.86234 13.6087 8.01029 15 5.83325 15C3.07183 15 0.833252 12.7614 0.833252 10C0.833252 7.23857 3.07183 5 5.83325 5C8.01029 5 9.86234 6.39135 10.5488 8.33333H19.1666V11.6667H17.4999V15H14.1666V11.6667ZM5.83325 11.6667C6.75373 11.6667 7.49992 10.9205 7.49992 10C7.49992 9.0795 6.75373 8.33333 5.83325 8.33333C4.91278 8.33333 4.16659 9.0795 4.16659 10C4.16659 10.9205 4.91278 11.6667 5.83325 11.6667Z" fill="white"/>
</svg>
