<svg width="20" height="20" viewBox="0 0 20 20" fill="none" xmlns="http://www.w3.org/2000/svg">
<path d="M15.3033 14.4701L10 19.7733L4.6967 14.4701C1.76777 11.5411 1.76777 6.79238 4.6967 3.86345C7.62563 0.934515 12.3743 0.934515 15.3033 3.86345C18.2323 6.79238 18.2323 11.5411 15.3033 14.4701ZM10 12.5001C11.8409 12.5001 13.3333 11.0077 13.3333 9.16675C13.3333 7.3258 11.8409 5.83341 10 5.83341C8.15905 5.83341 6.66667 7.3258 6.66667 9.16675C6.66667 11.0077 8.15905 12.5001 10 12.5001ZM10 10.8334C9.0795 10.8334 8.33333 10.0872 8.33333 9.16675C8.33333 8.24627 9.0795 7.50008 10 7.50008C10.9205 7.50008 11.6667 8.24627 11.6667 9.16675C11.6667 10.0872 10.9205 10.8334 10 10.8334Z" fill="white"/>
</svg>
