<?xml version="1.0" encoding="utf-8"?>
<!-- Generator: Adobe Illustrator 27.9.0, SVG Export Plug-In . SVG Version: 6.00 Build 0)  -->
<svg version="1.1" id="Layer_1" xmlns="http://www.w3.org/2000/svg" xmlns:xlink="http://www.w3.org/1999/xlink" x="0px" y="0px"
	 viewBox="0 0 1200 1200" style="enable-background:new 0 0 1200 1200;" xml:space="preserve">
<style type="text/css">
	.st0{fill:#003F20;}
	.st1{fill-rule:evenodd;clip-rule:evenodd;fill:#EFCC75;}
	.st2{fill-rule:evenodd;clip-rule:evenodd;fill:#003F20;}
	.st3{fill-rule:evenodd;clip-rule:evenodd;fill:#FFFFFF;}
	.st4{fill:#FFFFFF;}
	.st5{fill:#EFCC75;}
</style>
<g>
	<g>
		<path class="st0" d="M451.99,642.93V533.39h43.03c8.24,0,15.28,0.94,21.13,2.82c5.84,1.88,10.3,4.46,13.38,7.75
			c3.08,3.29,5.29,6.86,6.65,10.72c1.36,3.86,2.04,8.14,2.04,12.83c0,7.51-2.19,14.14-6.57,19.87c-4.38,5.74-10.22,9.65-17.53,11.74
			l32.86,43.82h-23l-29.89-40.22h-23.16v40.22H451.99z M470.93,551.23v33.64h24.57c7.2,0,12.83-1.54,16.9-4.62
			c4.07-3.08,6.1-7.33,6.1-12.75c0-5.22-1.8-9.23-5.4-12.05c-3.6-2.82-9.78-4.23-18.54-4.23H470.93z"/>
		<path class="st0" d="M557.7,571.65c8.08-7.98,18.54-11.97,31.37-11.97c12.83,0,23.32,3.99,31.46,11.97
			c8.14,7.98,12.2,18.13,12.2,30.44c0,12.2-4.07,22.3-12.2,30.28c-8.14,7.98-18.62,11.97-31.46,11.97
			c-12.62,0-23.03-3.99-31.22-11.97c-8.19-7.98-12.28-18.07-12.28-30.28C545.57,589.77,549.62,579.63,557.7,571.65z M571,620.47
			c4.64,4.85,10.67,7.28,18.07,7.28c7.51,0,13.59-2.35,18.23-7.04c4.64-4.69,6.96-10.9,6.96-18.62c0-7.72-2.4-13.95-7.2-18.7
			c-4.8-4.75-10.8-7.12-18-7.12c-7.3,0-13.3,2.35-17.99,7.04s-7.04,10.95-7.04,18.78C564.04,609.49,566.36,615.62,571,620.47z"/>
		<path class="st0" d="M687.89,614.13c-3.39-1.56-7.48-3-12.28-4.3c-4.8-1.3-9.62-2.84-14.47-4.62c-4.85-1.77-8.97-4.49-12.36-8.14
			c-3.4-3.65-5.09-8.03-5.09-13.15c0-7.51,2.97-13.43,8.92-17.76c5.94-4.33,14.13-6.49,24.56-6.49c6.99,0,13.51,1.41,19.56,4.23
			c6.05,2.82,10.48,6.21,13.3,10.17l-12.21,11.58c-5.42-6.26-13.3-9.39-23.63-9.39c-8.04,0-12.05,2.45-12.05,7.35
			c0,1.67,1.23,3.18,3.68,4.54c2.45,1.36,5.51,2.48,9.16,3.36c3.65,0.89,7.59,2.09,11.81,3.6c4.23,1.51,8.17,3.16,11.82,4.93
			c3.65,1.77,6.7,4.35,9.16,7.74c2.45,3.39,3.67,7.33,3.67,11.82c0,8.14-3.18,14.29-9.54,18.47c-6.36,4.17-14.35,6.26-23.95,6.26
			c-8.76,0-16.48-1.83-23.16-5.48c-6.67-3.65-11.53-8.35-14.55-14.09l14.08-9.7c2.29,3.65,5.79,6.68,10.48,9.08
			c4.69,2.4,9.65,3.6,14.87,3.6c3.76,0,6.91-0.65,9.46-1.96c2.56-1.3,3.83-3.31,3.83-6.03C692.98,617.57,691.28,615.7,687.89,614.13
			z"/>
		<path class="st0" d="M765.51,614.13c-3.39-1.56-7.48-3-12.28-4.3c-4.8-1.3-9.62-2.84-14.48-4.62c-4.85-1.77-8.97-4.49-12.36-8.14
			c-3.39-3.65-5.08-8.03-5.08-13.15c0-7.51,2.97-13.43,8.92-17.76c5.94-4.33,14.13-6.49,24.57-6.49c6.99,0,13.51,1.41,19.56,4.23
			c6.05,2.82,10.48,6.21,13.3,10.17l-12.21,11.58c-5.42-6.26-13.3-9.39-23.63-9.39c-8.03,0-12.05,2.45-12.05,7.35
			c0,1.67,1.23,3.18,3.67,4.54c2.45,1.36,5.51,2.48,9.16,3.36c3.65,0.89,7.59,2.09,11.82,3.6s8.16,3.16,11.81,4.93
			c3.66,1.77,6.71,4.35,9.16,7.74c2.45,3.39,3.68,7.33,3.68,11.82c0,8.14-3.18,14.29-9.55,18.47c-6.36,4.17-14.35,6.26-23.94,6.26
			c-8.76,0-16.49-1.83-23.16-5.48c-6.68-3.65-11.53-8.35-14.55-14.09l14.09-9.7c2.29,3.65,5.79,6.68,10.48,9.08
			c4.69,2.4,9.65,3.6,14.86,3.6c3.76,0,6.92-0.65,9.47-1.96c2.55-1.3,3.83-3.31,3.83-6.03C770.6,617.57,768.9,615.7,765.51,614.13z"
			/>
	</g>
	<g>
		<path class="st5" d="M817.55,561.55h15.34l0.94-4.38c1.99-10.64,5.61-18.26,10.88-22.85c5.27-4.59,11.45-6.88,18.54-6.88
			c4.17,0,7.8,0.89,10.87,2.66s5.24,4.07,6.49,6.89l-6.73,6.1c-2.19-4.38-5.79-6.57-10.8-6.57c-10.54,0-17.16,7.35-19.87,22.06
			l-0.47,2.97h25.35l-1.56,9.08h-25.19l-12.36,72.3h-9.86l12.36-72.3h-15.33L817.55,561.55z"/>
		<path class="st5" d="M922.86,629.47c-2.29,3.34-6.07,6.63-11.34,9.86c-5.27,3.24-10.93,4.85-16.98,4.85
			c-10.12,0-17.97-2.97-23.55-8.92s-8.37-13.77-8.37-23.47c0-7.72,1.49-14.97,4.46-21.75c2.97-6.78,6.8-12.34,11.5-16.67
			c4.7-4.33,9.86-7.72,15.5-10.17c5.63-2.45,11.21-3.68,16.74-3.68c10.54,0,18.52,2.61,23.94,7.82l7.51-38.65h9.55l-22.22,114.23
			h-9.39L922.86,629.47z M924.9,616.01l7.82-38.02c-4.49-6.26-11.79-9.39-21.91-9.39c-10.22,0-19.09,3.99-26.6,11.97
			c-7.51,7.98-11.27,18.07-11.27,30.28c0,7.72,2.11,13.69,6.33,17.92c4.23,4.23,9.78,6.34,16.67,6.34
			C907.32,635.1,916.97,628.74,924.9,616.01z"/>
		<path class="st5" d="M967.94,561.55h9.7l-2.03,11.74c8.87-9.08,19.46-13.62,31.76-13.62c7.83,0,13.93,2.22,18.31,6.65
			c4.38,4.43,6.57,10.46,6.57,18.07c0,3.44-0.57,8.5-1.72,15.18l-9.23,43.35h-9.54l8.76-42.09c1.15-6.36,1.72-11.32,1.72-14.87
			c-0.11-5.53-1.62-9.78-4.54-12.75c-2.92-2.97-6.99-4.46-12.21-4.46c-6.78,0-13.17,1.9-19.16,5.71c-6,3.81-10.57,8.53-13.7,14.16
			l-10.64,54.3h-9.7L967.94,561.55z"/>
		<path class="st5" d="M1053.14,629.47c1.62-1.56,3.68-2.35,6.18-2.35c2.19,0,4.09,0.78,5.71,2.35c1.62,1.56,2.42,3.34,2.42,5.32
			c0,2.3-0.78,4.28-2.35,5.95c-1.56,1.67-3.49,2.5-5.79,2.5c-2.5,0-4.56-0.83-6.18-2.5c-1.62-1.67-2.42-3.65-2.42-5.95
			C1050.72,632.81,1051.52,631.03,1053.14,629.47z"/>
	</g>
	<path class="st1" d="M375.97,575.92c0,10.64-8.63,19.27-19.27,19.27c-10.64,0-19.28-8.63-19.28-19.27
		c0-10.64,8.63-19.27,19.28-19.27C367.34,556.65,375.96,565.28,375.97,575.92"/>
	<path class="st1" d="M251.73,643.59c-11.73-0.68-20.42-11.19-18.3-22.71c3.86-20.82,32.9-21.3,37.85-0.73
		c1.11,4.56,0.34,10.38,2.75,16.12c4.51,10.71,13.48,18.02,24.93,20.16c0.01,0,2.17,0.2,6.48,0.6
		c11.47,1.06,19.59,10.25,18.17,21.71c-2.62,21.27-32.88,22.72-38,1.63c-0.65-2.65-0.47-7.11-1.05-10.06
		c-2.62-13.58-13.24-23.92-26.85-26.33C257.46,643.94,255.46,643.8,251.73,643.59"/>
	<path class="st2" d="M233.01,523.21c1.07-19.65,26.07-25.19,35.95-9.34c6.98,11.19,0.3,25.55-12.17,28.61
		c-0.37,0.1-2.95,0.39-7.72,0.88c-15.42,1.59-28.34,14.39-29.35,29.8c-0.31,4.55-0.38,7.97-2.51,11.86
		c-9.28,16.89-34.17,11.6-36.26-7.42c-1.01-9.25,5.99-18.66,14.89-20.5c3.53-0.72,8.9-0.59,12.88-1.69
		c12.74-3.55,22.16-14.16,24.02-27.34C232.75,528.04,232.84,526.42,233.01,523.21"/>
	<path class="st2" d="M323.8,523.81c0,10.64-8.62,19.26-19.27,19.26c-10.64,0-19.26-8.62-19.26-19.26
		c0-10.64,8.62-19.27,19.26-19.27C315.18,504.55,323.8,513.17,323.8,523.81"/>
	<path class="st2" d="M171.08,575.92c0,10.64-8.63,19.27-19.27,19.27c-10.64,0-19.27-8.63-19.27-19.27
		c0-10.64,8.63-19.27,19.27-19.27C162.45,556.65,171.08,565.28,171.08,575.92"/>
	<path class="st2" d="M271.65,575.92c0,10.64-8.63,19.27-19.27,19.27c-10.65,0-19.27-8.63-19.27-19.27
		c0-10.64,8.63-19.27,19.27-19.27C263.02,556.65,271.65,565.28,271.65,575.92"/>
	<path class="st2" d="M375.1,633.56c-6.39,20.97-37.03,16.74-37.71-5.24c-0.55-17.25-12.28-30.94-29.67-32.79
		c-3.25-0.35-6.62-0.34-9.56-1.38c-14.17-5.01-17.41-23.63-5.89-33.06c10.09-8.26,24.44-4.55,29.86,7.02
		c1.59,3.39,1.68,7.08,2.02,10.96c1.37,15.84,14.21,27.96,29.69,29.47c4.77,0.47,7.31,0.74,7.6,0.81
		C371.97,611.98,378.32,622.97,375.1,633.56"/>
	<path class="st2" d="M219.5,624.2c0,10.65-8.63,19.28-19.28,19.28c-10.65,0-19.28-8.63-19.28-19.28c0-10.65,8.63-19.28,19.28-19.28
		C210.87,604.92,219.5,613.55,219.5,624.2"/>
	<path class="st2" d="M323.82,624.19c0,10.65-8.63,19.28-19.27,19.28c-10.64,0-19.28-8.63-19.28-19.28
		c0-10.64,8.63-19.27,19.28-19.27C315.18,604.92,323.82,613.55,323.82,624.19"/>
	<path class="st1" d="M219.5,523.81c0,10.64-8.63,19.27-19.27,19.27c-10.64,0-19.28-8.63-19.28-19.27
		c0-10.64,8.63-19.28,19.28-19.28C210.86,504.54,219.5,513.17,219.5,523.81"/>
</g>
</svg>
